<?xml version="1.0" encoding="iso-8859-1"?>
<!-- Generator: Adobe Illustrator 19.0.0, SVG Export Plug-In . SVG Version: 6.00 Build 0)  -->
<svg version="1.1" id="Capa_1" xmlns="http://www.w3.org/2000/svg" xmlns:xlink="http://www.w3.org/1999/xlink" x="0px" y="0px"
	 viewBox="0 0 60 60" style="enable-background:new 0 0 60 60;" xml:space="preserve">
<g>
	<g>
		<rect fill="#2872BB" x="19" y="26" width="2" height="2"/>
		<rect fill="#2872BB" x="19" y="30" width="2" height="2"/>
		<path fill="#2872BB" d="M19,13h2c2.8,0,5-2.2,5-5V5c0-2.8-2.2-5-5-5h-2c-2.8,0-5,2.2-5,5v3C14,10.8,16.2,13,19,13z M16,5c0-1.7,1.3-3,3-3h2
			c1.7,0,3,1.3,3,3v3c0,1.7-1.3,3-3,3h-2c-1.7,0-3-1.3-3-3V5z"/>
		<path fill="#2872BB" d="M59,34H32V21c0-3.9-3.1-7-7-7H15c-3.9,0-7,3.1-7,7v13H1c-0.6,0-1,0.4-1,1v6c0,0.6,0.4,1,1,1h3v18h2V42h44v-2H5H2v-4h56v4
			h-3c-0.6,0-1,0.4-1,1v19h2V42h3c0.6,0,1-0.4,1-1v-6C60,34.4,59.6,34,59,34z M21.7,16l-1.6,4.2L18.5,16H21.7z M10,21
			c0-2.8,2.2-5,5-5h1.3l2.8,7.4c0.1,0.3,0.5,0.6,0.9,0.6s0.8-0.3,1.1-0.6l2.8-7.4H25c2.8,0,5,2.2,5,5v13h-3V24h-2v10H15V24h-2v10h-3
			L10,21L10,21z"/>
		<path fill="#2872BB" d="M59,3H35c-0.6,0-1,0.4-1,1v14c0,0.6,0.4,1,1,1h5v4c0,0.4,0.2,0.8,0.6,0.9C40.7,24,40.9,24,41,24c0.3,0,0.5-0.1,0.7-0.3
			l4.7-4.7H59c0.6,0,1-0.4,1-1V4C60,3.4,59.6,3,59,3z M58,17H46c-0.3,0-0.5,0.1-0.7,0.3L42,20.6V18c0-0.6-0.4-1-1-1h-5V5h22V17z"/>
		<rect fill="#2872BB" x="39" y="8" width="6" height="2"/>
		<rect fill="#2872BB" x="47" y="8" width="6" height="2"/>
		<rect fill="#2872BB" x="39" y="12" width="16" height="2"/>
		<path fill="#2872BB" d="M35,47H25c-0.6,0-1,0.4-1,1v6c0,0.6,0.4,1,1,1h10c0.6,0,1-0.4,1-1v-6C36,47.4,35.6,47,35,47z M34,53h-8v-4h8V53z"/>
		<rect fill="#2872BB" x="40" y="48" width="2" height="2"/>
		<rect fill="#2872BB" x="44" y="48" width="2" height="2"/>
		<rect fill="#2872BB" x="48" y="48" width="2" height="2"/>
		<rect fill="#2872BB" x="40" y="52" width="2" height="2"/>
		<rect fill="#2872BB" x="44" y="52" width="2" height="2"/>
		<rect fill="#2872BB" x="48" y="52" width="2" height="2"/>
		<rect fill="#2872BB" x="10" y="48" width="2" height="2"/>
		<rect fill="#2872BB" x="14" y="48" width="2" height="2"/>
		<rect fill="#2872BB" x="18" y="48" width="2" height="2"/>
		<rect fill="#2872BB" x="10" y="52" width="2" height="2"/>
		<rect fill="#2872BB" x="14" y="52" width="2" height="2"/>
		<rect fill="#2872BB" x="18" y="52" width="2" height="2"/>
	</g>
</g>
<g>
</g>
<g>
</g>
<g>
</g>
<g>
</g>
<g>
</g>
<g>
</g>
<g>
</g>
<g>
</g>
<g>
</g>
<g>
</g>
<g>
</g>
<g>
</g>
<g>
</g>
<g>
</g>
<g>
</g>
</svg>
