<svg xmlns="http://www.w3.org/2000/svg" width="256" height="256" viewBox="0 0 100 100"><rect width="100" height="100" rx="20" fill="#2872bb" data-darkreader-inline-fill="" style="--darkreader-inline-fill:#364755;"></rect><path fill="#fff" data-darkreader-inline-fill="" style="--darkreader-inline-fill:#ccbea6;" d="M32.29 75.09L32.29 75.09Q32.29 80.42 37.90 81.50L37.90 81.50Q38.98 81.72 40.35 81.72L40.35 81.72Q49.35 81.72 54.61 75.92Q59.86 70.12 59.86 61.34L59.86 61.34Q59.86 57.88 58.60 54.97Q57.34 52.05 55.47 50.14Q53.60 48.24 51.40 46.29Q49.21 44.35 47.34 42.76Q45.46 41.18 44.20 38.95Q42.94 36.72 42.94 34.20L42.94 34.20Q42.94 27.57 48.88 21.99Q54.82 16.41 61.66 16.41L61.66 16.41Q63.03 16.41 63.68 17.42Q64.33 18.43 64.33 19.44L64.33 19.44L64.26 20.37Q63.75 20.08 61.74 20.08L61.74 20.08Q57.13 20.08 52.81 24.40Q48.49 28.72 48.49 34.41L48.49 34.41Q48.49 36.72 49.75 38.91Q51.01 41.11 52.88 42.76Q54.75 44.42 56.91 46.47Q59.07 48.52 60.94 50.50Q62.82 52.48 64.08 55.33Q65.34 58.17 65.34 61.34L65.34 61.34Q65.34 70.05 58.14 76.82Q50.94 83.59 40.35 83.59L40.35 83.59Q31.42 83.59 29.05 77.83L29.05 77.83Q27.18 73.08 30.49 67.32Q33.80 61.56 40.06 59.54L40.06 59.54Q42.37 58.82 44.17 58.82Q45.97 58.82 46.65 59.43Q47.34 60.04 47.55 61.34L47.55 61.34Q40.78 61.34 35.96 66.81L35.96 66.81Q32.29 70.92 32.29 75.09ZM65.70 35.28L65.70 35.28Q65.70 35.64 65.01 35.64Q64.33 35.64 63.75 35.35Q63.18 35.06 63.18 34.56L63.18 34.56Q63.18 27.21 64.83 22.75Q66.49 18.28 69.22 18.28L69.22 18.28Q69.94 18.28 70.45 18.79Q70.95 19.29 70.95 20.08L70.95 20.08Q67.71 23.32 66.27 29.80L66.27 29.80Q65.70 32.40 65.70 35.28Z"></path></svg>